{"title":"Come September 1961 DVDRip Eng Sub Rock Hudson Gina Lollobrigida","uid":6546758,"size":1387994988,"categoryP":"video","categoryS":"movies","magnet":"?xt=urn:btih:284e575fe849ffd36aa9b9eceb7d9d33a0b3ae8f&amp;dn=Come+September+1961+DVDRip+Eng+Sub+Rock+Hudson+Gina+Lollobrigida&amp;tr=udp%3A%2F%2Ftracker.openbittorrent.com%3A80&amp;tr=udp%3A%2F%2Fopen.demonii.com%3A1337&amp;tr=udp%3A%2F%2Ftracker.coppersurfer.tk%3A6969&amp;tr=udp%3A%2F%2Fexodus.desync.com%3A6969","seeders":0,"leechers":8,"uploader":"CrowTR","files":1,"time":1310900516,"description":"Come September 1961 DVDRip Eng Sub Rock Hudson Gina Lollobrigida\n\nFormat                           : MPEG-4\nFormat profile                   : Base Media / Version 2\nCodec ID                         : mp42\nFile size                        : 1.29 GiB\nDuration                         : 1h 53mn\nOverall bit rate                 : 1 631 Kbps\nEncoded date                     : UTC 2011-07-16 22:28:28\nTagged date                      : UTC 2011-07-16 23:28:01\n\nVideo\nID                               : 1\nFormat                           : MPEG-4 Visual\nFormat profile                   : AdvancedSimple@L5\nFormat settings, BVOP            : Yes\nFormat settings, QPel            : Yes\nFormat settings, GMC             : No warppoints\nFormat settings, Matrix          : Default (H.263)\nCodec ID                         : 20\nDuration                         : 1h 53mn\nBit rate mode                    : Variable\nBit rate                         : 1 491 Kbps\nMaximum bit rate                 : 5 246 Kbps\nWidth                            : 720 pixels\nHeight                           : 304 pixels\nDisplay aspect ratio             : 2.35:1\nFrame rate mode                  : Constant\nFrame rate                       : 23.976 fps\nResolution                       : 24 bits\nColorimetry                      : 4:2:0\nScan type                        : Progressive\nBits/(Pixel*Frame)               : 0.284\nStream size                      : 1.18 GiB (91%)\nWriting library                  : em4v 4.1.6.5\nLanguage                         : English\nEncoded date                     : UTC 2011-07-16 22:28:28\nTagged date                      : UTC 2011-07-16 23:28:01\n\nAudio\nID                               : 2\nFormat                           : AAC\nFormat/Info                      : Advanced Audio Codec\nFormat version                   : Version 4\nFormat profile                   : LC\nFormat settings, SBR             : No\nCodec ID                         : 40\nDuration                         : 1h 53mn\nBit rate mode                    : Variable\nBit rate                         : 129 Kbps\nMaximum bit rate                 : 171 Kbps\nChannel(s)                       : 2 channels\nChannel positions                : L R\nSampling rate                    : 48.0 KHz\nResolution                       : 16 bits\nStream size                      : 105 MiB (8%)\nLanguage                         : English\nEncoded date                     : UTC 2011-07-16 22:28:28\nTagged date                      : UTC 2011-07-16 23:28:01\n\nText\nID                               : 3\nFormat                           : VobSub\nCodec ID                         : subp\nCodec ID/Info                    : The same subtitle format used on DVDs\nDuration                         : 1h 53mn\nBit rate mode                    : Variable\nBit rate                         : 4 837 bps\nStream size                      : 3.91 MiB (0%)\nTitle                            : English\nLanguage                         : English\nEncoded date                     : UTC 2011-07-16 22:28:33\nTagged date                      : UTC 2011-07-16 23:28:01\n","torrent":{"xt":"urn:btih:284e575fe849ffd36aa9b9eceb7d9d33a0b3ae8f","amp;dn":"Come+September+1961+DVDRip+Eng+Sub+Rock+Hudson+Gina+Lollobrigida","amp;tr":["udp%3A%2F%2Ftracker.openbittorrent.com%3A80","udp%3A%2F%2Fopen.demonii.com%3A1337","udp%3A%2F%2Ftracker.coppersurfer.tk%3A6969","udp%3A%2F%2Fexodus.desync.com%3A6969"],"infoHash":"284e575fe849ffd36aa9b9eceb7d9d33a0b3ae8f","infoHashBuffer":{"type":"Buffer","data":[40,78,87,95,232,73,255,211,106,169,185,236,235,125,157,51,160,179,174,143]},"announce":[],"urlList":[]}}